<?xml version="1.0" encoding="utf-8"?><!-- Uploaded to: SVG Repo, www.svgrepo.com, Generator: SVG Repo Mixer Tools -->
<svg width="800px" height="800px" viewBox="0 0 64 64" xmlns="http://www.w3.org/2000/svg" stroke-width="3" stroke="#000000" fill="none"><path d="M32.5,10.36l6.84,13.57a.55.55,0,0,0,.42.3L55,26.4a.57.57,0,0,1,.3,1L44.3,37.9a.56.56,0,0,0-.16.51l2.6,14.88a.56.56,0,0,1-.81.6l-13.67-7a.59.59,0,0,0-.52,0l-13.67,7a.56.56,0,0,1-.81-.6l2.6-14.88a.56.56,0,0,0-.16-.51l-11-10.52a.57.57,0,0,1,.3-1l15.26-2.17a.55.55,0,0,0,.42-.3L31.5,10.36A.56.56,0,0,1,32.5,10.36Z"/></svg>